<svg width="1639" height="311" viewBox="0 0 1639 311" fill="none" xmlns="http://www.w3.org/2000/svg">
<path fill-rule="evenodd" clip-rule="evenodd" d="M219.527 32.3622H0.148438V113.221V253.453H219.527H219.527V32.3622ZM219.527 32.3622L0.148438 113.221L52.519 148.095L219.527 32.3622ZM219.527 32.3622L83.3036 165.064L219.527 253.453L219.527 32.3622Z" fill="url(#paint0_linear_145_559)"/>
<path d="M52.5191 148.095L67.4632 253.453L83.3039 165.064L219.527 32.3622L52.5191 148.095Z" fill="#A7DCE9"/>
<path d="M67.4627 253.453L114.719 185.413L83.3034 165.064L67.4627 253.453Z" fill="#D9F1F4"/>
<path d="M354.458 33.6373H352.225C334.678 55.3313 301.499 78.9395 276.934 88.8294V93.6149H295.119V201.128C295.119 235.902 314.58 253.449 343.93 253.449C369.453 253.449 389.233 238.455 400.718 220.27L399.441 218.675C393.061 223.141 384.766 224.736 378.386 224.736C363.391 224.736 354.458 217.08 354.458 199.214V93.6149H394.018V81.4918H354.458V33.6373ZM552.516 130.622C552.516 89.1485 525.718 75.1112 481.372 75.1112C445.322 75.1112 411.186 90.7436 411.186 117.861C411.186 129.346 418.204 137.322 426.818 140.193L463.826 135.408C461.912 129.346 460.316 117.861 460.316 109.566C460.316 92.0198 465.74 79.8966 478.182 79.8966C490.624 79.8966 494.772 91.3817 494.772 107.971V147.531L449.788 162.844C421.076 172.415 401.934 185.496 401.934 210.699C401.934 237.497 422.671 252.173 447.236 252.173C468.292 252.173 485.52 240.05 495.091 227.608C499.557 242.921 513.594 253.449 532.417 253.449C550.283 253.449 566.553 243.24 575.167 229.841L573.891 228.246C571.977 229.203 568.787 230.16 564.639 230.16C556.982 230.16 552.516 225.374 552.516 216.122V130.622ZM482.01 228.565C467.016 228.565 458.402 214.527 458.402 193.471C458.402 173.372 465.74 164.759 479.777 159.016L494.772 152.954V224.098C491.581 226.969 486.796 228.565 482.01 228.565ZM624.295 61.0738C643.756 61.0738 655.56 47.3555 655.56 31.404C655.56 15.4525 643.756 2.05328 624.295 2.05328C604.834 2.05328 593.03 15.4525 593.03 31.404C593.03 47.3555 604.834 61.0738 624.295 61.0738ZM653.327 75.1112H652.051L576.441 93.6149V94.891L594.306 112.757V233.669C594.306 243.878 589.202 245.154 576.441 246.111V250.259H671.512V246.111C658.751 245.154 653.327 243.878 653.327 233.669V75.1112ZM754.552 0.458131H753.276L677.985 18.9619V20.238L695.85 38.1037V233.669C695.85 243.878 690.427 245.154 677.666 246.111V250.259H772.736V246.111C759.975 245.154 754.552 243.878 754.552 233.669V0.458131ZM950.032 251.535H960.56L1019.26 104.143C1025.64 89.1485 1030.75 84.6821 1042.55 82.7679V78.3015H985.126V82.7679C1003.63 83.725 1012.24 86.9153 1012.24 96.1671C1012.24 98.7194 1011.61 101.91 1010.01 105.419L979.383 187.729L948.118 102.548C946.842 99.0384 945.566 96.1671 945.566 93.6149C945.566 87.5533 950.67 84.363 966.941 82.7679V78.3015H870.913V82.7679C880.165 84.6821 883.036 88.8294 888.141 100.953L903.135 137.322L883.674 187.729L849.538 102.548C848.262 99.0384 847.305 96.1671 847.305 93.6149C847.305 87.5533 850.176 84.363 860.066 82.7679V78.3015H769.142V82.7679C779.67 85.3201 783.18 88.8294 788.284 100.953L854.323 251.535H864.851L906.963 146.574L950.032 251.535ZM1092.56 61.0738C1112.02 61.0738 1123.82 47.3555 1123.82 31.404C1123.82 15.4525 1112.02 2.05328 1092.56 2.05328C1073.1 2.05328 1061.29 15.4525 1061.29 31.404C1061.29 47.3555 1073.1 61.0738 1092.56 61.0738ZM1121.59 75.1112H1120.31L1044.7 93.6149V94.891L1062.57 112.757V233.669C1062.57 243.878 1057.47 245.154 1044.7 246.111V250.259H1139.78V246.111C1127.01 245.154 1121.59 243.878 1121.59 233.669V75.1112ZM1272.9 233.669C1272.9 243.878 1267.48 245.154 1254.72 246.111V250.259H1349.79V246.111C1337.03 245.154 1331.6 243.878 1331.6 233.669V127.432C1331.6 94.891 1314.7 75.1112 1284.07 75.1112C1257.27 75.1112 1233.98 95.5291 1224.09 110.523L1225.37 75.1112H1224.09L1147.21 93.6149V94.891L1165.07 112.757V233.669C1165.07 243.878 1159.97 245.154 1147.21 246.111V250.259H1242.28V246.111C1229.52 245.154 1224.09 243.878 1224.09 233.669V112.757C1232.07 108.928 1240.36 106.376 1250.57 106.376C1267.16 106.376 1272.9 115.628 1272.9 129.984V233.669ZM1476.5 253.449L1554.03 242.283V238.455C1537.44 238.135 1535.2 233.35 1535.2 222.184V0.458131H1533.93L1458.64 18.9619V20.238L1476.5 38.1037V81.8108C1470.76 77.9824 1460.55 75.1112 1450.66 75.1112C1398.98 75.1112 1358.46 111.8 1358.46 174.01C1358.46 221.546 1385.9 253.449 1423.22 253.449C1450.66 253.449 1467.57 236.221 1476.5 219.632L1475.23 253.449H1476.5ZM1453.21 80.8537C1468.21 80.8537 1476.5 95.21 1476.5 117.861V216.76C1470.76 220.589 1465.02 222.184 1458 222.184C1433.75 222.184 1418.44 198.576 1418.44 154.231C1418.44 112.757 1429.92 80.8537 1453.21 80.8537Z" fill="#03025E"/>
<defs>
<linearGradient id="paint0_linear_145_559" x1="35.3168" y1="210.948" x2="199.515" y2="63.3858" gradientUnits="userSpaceOnUse">
<stop stop-color="#1F4DD8"/>
<stop offset="1" stop-color="#259AED"/>
</linearGradient>
</defs>
</svg>
